<svg width="1400" height="76" viewBox="0 0 1400 76" fill="none" xmlns="http://www.w3.org/2000/svg">
<rect x="36" y="50.5" width="43" height="1" fill="#4A2B33"/>
<rect x="99" y="50.5" width="40" height="1" fill="#4A2B33"/>
<rect x="159" y="50.5" width="28" height="1" fill="#4A2B33"/>
<rect x="207" y="50.5" width="59" height="1" fill="#4A2B33"/>
<path d="M37.7685 42H36.3835L40.3892 31.0909H41.7528L45.7585 42H44.3736L41.1136 32.8168H41.0284L37.7685 42ZM38.2798 37.7386H43.8622V38.9105H38.2798V37.7386ZM47.4577 42V31.0909H48.7148V35.1179H48.8214C48.9137 34.9759 49.0415 34.7947 49.2049 34.5746C49.3718 34.3509 49.6097 34.152 49.9187 33.978C50.2312 33.8004 50.6538 33.7116 51.1864 33.7116C51.8754 33.7116 52.4826 33.8839 53.0082 34.2283C53.5337 34.5728 53.9439 35.0611 54.2386 35.6932C54.5334 36.3253 54.6808 37.071 54.6808 37.9304C54.6808 38.7969 54.5334 39.5479 54.2386 40.1836C53.9439 40.8157 53.5355 41.3058 53.0135 41.6538C52.4915 41.9982 51.8896 42.1705 51.2077 42.1705C50.6822 42.1705 50.2614 42.0835 49.9453 41.9094C49.6293 41.7319 49.386 41.5312 49.2156 41.3075C49.0451 41.0803 48.9137 40.892 48.8214 40.7429H48.6722V42H47.4577ZM48.6935 37.9091C48.6935 38.527 48.7841 39.0721 48.9652 39.5444C49.1463 40.0131 49.4109 40.3807 49.7589 40.647C50.1069 40.9098 50.533 41.0412 51.0373 41.0412C51.5629 41.0412 52.0014 40.9027 52.353 40.6257C52.7081 40.3452 52.9744 39.9687 53.152 39.4964C53.3331 39.0206 53.4237 38.4915 53.4237 37.9091C53.4237 37.3338 53.3349 36.8153 53.1573 36.3537C52.9833 35.8885 52.7188 35.521 52.3636 35.2511C52.0121 34.9776 51.57 34.8409 51.0373 34.8409C50.5259 34.8409 50.0962 34.9705 49.7482 35.2298C49.4002 35.4854 49.1374 35.8441 48.9599 36.3058C48.7823 36.7638 48.6935 37.2983 48.6935 37.9091ZM59.9276 42.1705C59.1889 42.1705 58.5408 41.9947 57.9833 41.6431C57.4293 41.2915 56.9961 40.7997 56.6836 40.1676C56.3746 39.5355 56.2202 38.7969 56.2202 37.9517C56.2202 37.0994 56.3746 36.3555 56.6836 35.7198C56.9961 35.0842 57.4293 34.5906 57.9833 34.239C58.5408 33.8874 59.1889 33.7116 59.9276 33.7116C60.6662 33.7116 61.3125 33.8874 61.8665 34.239C62.424 34.5906 62.8572 35.0842 63.1662 35.7198C63.4787 36.3555 63.6349 37.0994 63.6349 37.9517C63.6349 38.7969 63.4787 39.5355 63.1662 40.1676C62.8572 40.7997 62.424 41.2915 61.8665 41.6431C61.3125 41.9947 60.6662 42.1705 59.9276 42.1705ZM59.9276 41.0412C60.4886 41.0412 60.9503 40.8974 61.3125 40.6097C61.6747 40.3221 61.9428 39.9439 62.1168 39.4751C62.2908 39.0064 62.3778 38.4986 62.3778 37.9517C62.3778 37.4048 62.2908 36.8952 62.1168 36.4229C61.9428 35.9506 61.6747 35.5689 61.3125 35.2777C60.9503 34.9865 60.4886 34.8409 59.9276 34.8409C59.3665 34.8409 58.9048 34.9865 58.5426 35.2777C58.1804 35.5689 57.9123 35.9506 57.7383 36.4229C57.5643 36.8952 57.4773 37.4048 57.4773 37.9517C57.4773 38.4986 57.5643 39.0064 57.7383 39.4751C57.9123 39.9439 58.1804 40.3221 58.5426 40.6097C58.9048 40.8974 59.3665 41.0412 59.9276 41.0412ZM70.7101 38.6548V33.8182H71.9672V42H70.7101V40.6151H70.6249C70.4331 41.0305 70.1349 41.3839 69.73 41.6751C69.3252 41.9627 68.8138 42.1065 68.1959 42.1065C67.6846 42.1065 67.23 41.9947 66.8323 41.771C66.4346 41.5437 66.1221 41.2028 65.8948 40.7482C65.6675 40.2901 65.5539 39.7131 65.5539 39.017V33.8182H66.811V38.9318C66.811 39.5284 66.9779 40.0043 67.3117 40.3594C67.6491 40.7145 68.0787 40.892 68.6008 40.892C68.9133 40.892 69.2311 40.8121 69.5542 40.6523C69.8809 40.4925 70.1544 40.2475 70.3746 39.9173C70.5983 39.587 70.7101 39.1662 70.7101 38.6548ZM77.8279 33.8182V34.8835H73.5879V33.8182H77.8279ZM74.8237 31.858H76.0808V39.6562C76.0808 40.0114 76.1323 40.2777 76.2353 40.4553C76.3418 40.6293 76.4767 40.7464 76.6401 40.8068C76.807 40.8636 76.9828 40.892 77.1674 40.892C77.3059 40.892 77.4196 40.8849 77.5083 40.8707C77.5971 40.853 77.6681 40.8388 77.7214 40.8281L77.9771 41.9574C77.8919 41.9893 77.7729 42.0213 77.6202 42.0533C77.4675 42.0888 77.274 42.1065 77.0396 42.1065C76.6845 42.1065 76.3365 42.0302 75.9956 41.8775C75.6582 41.7248 75.3777 41.4922 75.1539 41.1797C74.9338 40.8672 74.8237 40.473 74.8237 39.9972V31.858Z" fill="#D27487"/>
<path d="M161.642 31.0909V42H160.321V31.0909H161.642ZM165.377 37.0781V42H164.12V33.8182H165.335V35.0966H165.441C165.633 34.6811 165.924 34.3473 166.315 34.0952C166.706 33.8395 167.21 33.7116 167.828 33.7116C168.382 33.7116 168.866 33.8253 169.282 34.0526C169.697 34.2763 170.021 34.6172 170.251 35.0753C170.482 35.5298 170.598 36.1051 170.598 36.8011V42H169.34V36.8864C169.34 36.2436 169.174 35.7429 168.84 35.3842C168.506 35.022 168.048 34.8409 167.465 34.8409C167.064 34.8409 166.706 34.9279 166.389 35.1019C166.077 35.2759 165.83 35.5298 165.649 35.8636C165.468 36.1974 165.377 36.6023 165.377 37.0781ZM176.538 33.8182V34.8835H172.128V33.8182H176.538ZM173.449 42V32.6889C173.449 32.2202 173.559 31.8295 173.779 31.517C173.999 31.2045 174.285 30.9702 174.637 30.8139C174.988 30.6577 175.359 30.5795 175.75 30.5795C176.059 30.5795 176.311 30.6044 176.506 30.6541C176.702 30.7038 176.847 30.75 176.943 30.7926L176.581 31.8793C176.517 31.858 176.428 31.8313 176.314 31.7994C176.204 31.7674 176.059 31.7514 175.878 31.7514C175.462 31.7514 175.162 31.8562 174.977 32.0657C174.796 32.2752 174.706 32.5824 174.706 32.9872V42H173.449ZM181.287 42.1705C180.548 42.1705 179.9 41.9947 179.343 41.6431C178.789 41.2915 178.355 40.7997 178.043 40.1676C177.734 39.5355 177.58 38.7969 177.58 37.9517C177.58 37.0994 177.734 36.3555 178.043 35.7198C178.355 35.0842 178.789 34.5906 179.343 34.239C179.9 33.8874 180.548 33.7116 181.287 33.7116C182.026 33.7116 182.672 33.8874 183.226 34.239C183.783 34.5906 184.217 35.0842 184.526 35.7198C184.838 36.3555 184.994 37.0994 184.994 37.9517C184.994 38.7969 184.838 39.5355 184.526 40.1676C184.217 40.7997 183.783 41.2915 183.226 41.6431C182.672 41.9947 182.026 42.1705 181.287 42.1705ZM181.287 41.0412C181.848 41.0412 182.31 40.8974 182.672 40.6097C183.034 40.3221 183.302 39.9439 183.476 39.4751C183.65 39.0064 183.737 38.4986 183.737 37.9517C183.737 37.4048 183.65 36.8952 183.476 36.4229C183.302 35.9506 183.034 35.5689 182.672 35.2777C182.31 34.9865 181.848 34.8409 181.287 34.8409C180.726 34.8409 180.264 34.9865 179.902 35.2777C179.54 35.5689 179.272 35.9506 179.098 36.4229C178.924 36.8952 178.837 37.4048 178.837 37.9517C178.837 38.4986 178.924 39.0064 179.098 39.4751C179.272 39.9439 179.54 40.3221 179.902 40.6097C180.264 40.8974 180.726 41.0412 181.287 41.0412Z" fill="#D27487"/>
<path d="M100.321 31.0909H101.898L105.605 40.1463H105.733L109.44 31.0909H111.017V42H109.781V33.7116H109.675L106.266 42H105.072L101.663 33.7116H101.557V42H100.321V31.0909ZM116.926 42.1705C116.137 42.1705 115.457 41.9964 114.886 41.6484C114.317 41.2969 113.879 40.8068 113.57 40.1783C113.264 39.5462 113.112 38.8111 113.112 37.973C113.112 37.1349 113.264 36.3963 113.57 35.7571C113.879 35.1143 114.309 34.6136 114.859 34.255C115.413 33.8928 116.059 33.7116 116.798 33.7116C117.224 33.7116 117.645 33.7827 118.06 33.9247C118.476 34.0668 118.854 34.2976 119.195 34.6172C119.536 34.9332 119.807 35.3523 120.01 35.8743C120.212 36.3963 120.313 37.0391 120.313 37.8026V38.3352H114.007V37.2486H119.035C119.035 36.7869 118.943 36.375 118.758 36.0128C118.577 35.6506 118.318 35.3647 117.98 35.1552C117.647 34.9457 117.252 34.8409 116.798 34.8409C116.297 34.8409 115.864 34.9652 115.498 35.2138C115.136 35.4588 114.857 35.7784 114.662 36.1726C114.467 36.5668 114.369 36.9893 114.369 37.4403V38.1648C114.369 38.7827 114.475 39.3065 114.688 39.7362C114.905 40.1623 115.205 40.4872 115.589 40.7109C115.972 40.9311 116.418 41.0412 116.926 41.0412C117.256 41.0412 117.554 40.995 117.821 40.9027C118.09 40.8068 118.323 40.6648 118.518 40.4766C118.714 40.2848 118.865 40.0469 118.971 39.7628L120.186 40.1037C120.058 40.5156 119.843 40.8778 119.541 41.1903C119.239 41.4993 118.866 41.7408 118.422 41.9148C117.979 42.0852 117.48 42.1705 116.926 42.1705ZM123.483 37.0781V42H122.226V33.8182H123.44V35.0966H123.547C123.739 34.6811 124.03 34.3473 124.42 34.0952C124.811 33.8395 125.315 33.7116 125.933 33.7116C126.487 33.7116 126.972 33.8253 127.387 34.0526C127.803 34.2763 128.126 34.6172 128.357 35.0753C128.588 35.5298 128.703 36.1051 128.703 36.8011V42H127.446V36.8864C127.446 36.2436 127.279 35.7429 126.945 35.3842C126.611 35.022 126.153 34.8409 125.571 34.8409C125.17 34.8409 124.811 34.9279 124.495 35.1019C124.182 35.2759 123.936 35.5298 123.755 35.8636C123.573 36.1974 123.483 36.6023 123.483 37.0781ZM136.156 38.6548V33.8182H137.414V42H136.156V40.6151H136.071C135.879 41.0305 135.581 41.3839 135.176 41.6751C134.771 41.9627 134.26 42.1065 133.642 42.1065C133.131 42.1065 132.676 41.9947 132.279 41.771C131.881 41.5437 131.568 41.2028 131.341 40.7482C131.114 40.2901 131 39.7131 131 39.017V33.8182H132.257V38.9318C132.257 39.5284 132.424 40.0043 132.758 40.3594C133.095 40.7145 133.525 40.892 134.047 40.892C134.36 40.892 134.677 40.8121 135.001 40.6523C135.327 40.4925 135.601 40.2475 135.821 39.9173C136.045 39.587 136.156 39.1662 136.156 38.6548Z" fill="#D27487"/>
<path d="M208.321 42V31.0909H212.135C212.895 31.0909 213.522 31.2223 214.015 31.4851C214.509 31.7443 214.876 32.0941 215.118 32.5344C215.359 32.9712 215.48 33.456 215.48 33.9886C215.48 34.4574 215.397 34.8445 215.23 35.1499C215.066 35.4553 214.85 35.6967 214.58 35.8743C214.314 36.0518 214.024 36.1832 213.712 36.2685V36.375C214.045 36.3963 214.381 36.5135 214.718 36.7266C215.056 36.9396 215.338 37.245 215.565 37.6428C215.793 38.0405 215.906 38.527 215.906 39.1023C215.906 39.6491 215.782 40.141 215.533 40.5778C215.285 41.0146 214.892 41.3608 214.356 41.6165C213.82 41.8722 213.122 42 212.263 42H208.321ZM209.642 40.8281H212.263C213.126 40.8281 213.738 40.6612 214.1 40.3274C214.466 39.9901 214.649 39.5817 214.649 39.1023C214.649 38.733 214.555 38.392 214.367 38.0795C214.179 37.7635 213.911 37.5114 213.562 37.3232C213.214 37.1314 212.803 37.0355 212.327 37.0355H209.642V40.8281ZM209.642 35.8849H212.092C212.49 35.8849 212.849 35.8068 213.168 35.6506C213.491 35.4943 213.747 35.2741 213.935 34.9901C214.127 34.706 214.223 34.3722 214.223 33.9886C214.223 33.5092 214.056 33.1026 213.722 32.7688C213.388 32.4315 212.859 32.2628 212.135 32.2628H209.642V35.8849ZM221.23 42.1705C220.492 42.1705 219.844 41.9947 219.286 41.6431C218.732 41.2915 218.299 40.7997 217.986 40.1676C217.677 39.5355 217.523 38.7969 217.523 37.9517C217.523 37.0994 217.677 36.3555 217.986 35.7198C218.299 35.0842 218.732 34.5906 219.286 34.239C219.844 33.8874 220.492 33.7116 221.23 33.7116C221.969 33.7116 222.615 33.8874 223.169 34.239C223.727 34.5906 224.16 35.0842 224.469 35.7198C224.781 36.3555 224.938 37.0994 224.938 37.9517C224.938 38.7969 224.781 39.5355 224.469 40.1676C224.16 40.7997 223.727 41.2915 223.169 41.6431C222.615 41.9947 221.969 42.1705 221.23 42.1705ZM221.23 41.0412C221.791 41.0412 222.253 40.8974 222.615 40.6097C222.977 40.3221 223.246 39.9439 223.42 39.4751C223.594 39.0064 223.681 38.4986 223.681 37.9517C223.681 37.4048 223.594 36.8952 223.42 36.4229C223.246 35.9506 222.977 35.5689 222.615 35.2777C222.253 34.9865 221.791 34.8409 221.23 34.8409C220.669 34.8409 220.208 34.9865 219.845 35.2777C219.483 35.5689 219.215 35.9506 219.041 36.4229C218.867 36.8952 218.78 37.4048 218.78 37.9517C218.78 38.4986 218.867 39.0064 219.041 39.4751C219.215 39.9439 219.483 40.3221 219.845 40.6097C220.208 40.8974 220.669 41.0412 221.23 41.0412ZM230.18 42.1705C229.442 42.1705 228.794 41.9947 228.236 41.6431C227.682 41.2915 227.249 40.7997 226.937 40.1676C226.628 39.5355 226.473 38.7969 226.473 37.9517C226.473 37.0994 226.628 36.3555 226.937 35.7198C227.249 35.0842 227.682 34.5906 228.236 34.239C228.794 33.8874 229.442 33.7116 230.18 33.7116C230.919 33.7116 231.565 33.8874 232.119 34.239C232.677 34.5906 233.11 35.0842 233.419 35.7198C233.732 36.3555 233.888 37.0994 233.888 37.9517C233.888 38.7969 233.732 39.5355 233.419 40.1676C233.11 40.7997 232.677 41.2915 232.119 41.6431C231.565 41.9947 230.919 42.1705 230.18 42.1705ZM230.18 41.0412C230.742 41.0412 231.203 40.8974 231.565 40.6097C231.928 40.3221 232.196 39.9439 232.37 39.4751C232.544 39.0064 232.631 38.4986 232.631 37.9517C232.631 37.4048 232.544 36.8952 232.37 36.4229C232.196 35.9506 231.928 35.5689 231.565 35.2777C231.203 34.9865 230.742 34.8409 230.18 34.8409C229.619 34.8409 229.158 34.9865 228.796 35.2777C228.433 35.5689 228.165 35.9506 227.991 36.4229C227.817 36.8952 227.73 37.4048 227.73 37.9517C227.73 38.4986 227.817 39.0064 227.991 39.4751C228.165 39.9439 228.433 40.3221 228.796 40.6097C229.158 40.8974 229.619 41.0412 230.18 41.0412ZM236.979 39.017L236.957 37.4616H237.213L240.793 33.8182H242.348L238.534 37.6747H238.428L236.979 39.017ZM235.807 42V31.0909H237.064V42H235.807ZM241.006 42L237.81 37.9517L238.705 37.0781L242.604 42H241.006ZM243.966 42V33.8182H245.223V42H243.966ZM244.605 32.4545C244.36 32.4545 244.149 32.3711 243.971 32.2042C243.797 32.0373 243.71 31.8366 243.71 31.6023C243.71 31.3679 243.797 31.1673 243.971 31.0004C244.149 30.8335 244.36 30.75 244.605 30.75C244.85 30.75 245.06 30.8335 245.234 31.0004C245.411 31.1673 245.5 31.3679 245.5 31.6023C245.5 31.8366 245.411 32.0373 245.234 32.2042C245.06 32.3711 244.85 32.4545 244.605 32.4545ZM248.783 37.0781V42H247.526V33.8182H248.74V35.0966H248.847C249.038 34.6811 249.33 34.3473 249.72 34.0952C250.111 33.8395 250.615 33.7116 251.233 33.7116C251.787 33.7116 252.272 33.8253 252.687 34.0526C253.103 34.2763 253.426 34.6172 253.657 35.0753C253.887 35.5298 254.003 36.1051 254.003 36.8011V42H252.746V36.8864C252.746 36.2436 252.579 35.7429 252.245 35.3842C251.911 35.022 251.453 34.8409 250.871 34.8409C250.469 34.8409 250.111 34.9279 249.795 35.1019C249.482 35.2759 249.235 35.5298 249.054 35.8636C248.873 36.1974 248.783 36.6023 248.783 37.0781ZM259.603 45.2386C258.995 45.2386 258.473 45.1605 258.036 45.0043C257.6 44.8516 257.236 44.6491 256.945 44.397C256.657 44.1484 256.428 43.8821 256.257 43.598L257.259 42.8949C257.372 43.044 257.516 43.2145 257.69 43.4062C257.864 43.6016 258.102 43.7702 258.404 43.9123C258.709 44.0579 259.109 44.1307 259.603 44.1307C260.263 44.1307 260.808 43.9709 261.238 43.6513C261.668 43.3317 261.882 42.831 261.882 42.1491V40.4872H261.776C261.684 40.6364 261.552 40.821 261.382 41.0412C261.215 41.2578 260.973 41.4513 260.657 41.6218C260.345 41.7887 259.922 41.8722 259.389 41.8722C258.729 41.8722 258.136 41.7159 257.61 41.4034C257.088 41.0909 256.675 40.6364 256.369 40.0398C256.067 39.4432 255.916 38.7187 255.916 37.8665C255.916 37.0284 256.064 36.2987 256.359 35.6772C256.653 35.0522 257.063 34.5692 257.589 34.2283C258.115 33.8839 258.722 33.7116 259.411 33.7116C259.943 33.7116 260.366 33.8004 260.679 33.978C260.995 34.152 261.236 34.3509 261.403 34.5746C261.573 34.7947 261.705 34.9759 261.797 35.1179H261.925V33.8182H263.139V42.2344C263.139 42.9375 262.98 43.5092 262.66 43.9496C262.344 44.3935 261.918 44.7184 261.382 44.9244C260.849 45.1339 260.256 45.2386 259.603 45.2386ZM259.56 40.7429C260.064 40.7429 260.49 40.6275 260.838 40.3967C261.186 40.1658 261.451 39.8338 261.632 39.4006C261.813 38.9673 261.904 38.4489 261.904 37.8452C261.904 37.2557 261.815 36.7354 261.637 36.2844C261.46 35.8335 261.197 35.4801 260.849 35.2244C260.501 34.9687 260.071 34.8409 259.56 34.8409C259.027 34.8409 258.583 34.9759 258.228 35.2457C257.877 35.5156 257.612 35.8778 257.435 36.3324C257.261 36.7869 257.174 37.2912 257.174 37.8452C257.174 38.4134 257.262 38.9158 257.44 39.3526C257.621 39.7859 257.887 40.1268 258.239 40.3754C258.594 40.6204 259.034 40.7429 259.56 40.7429Z" fill="#D27487"/>
<path d="M562.683 53.3557V22.53H569.092V48.0561H584.43V53.3557H562.683Z" fill="#D27487"/>
<path d="M593.199 46.8196V41.52H611.012V46.8196H593.199ZM596.956 22.53H606.459L614.857 53.3557H608.315L603.542 34.8955L601.685 27.1671L599.829 34.8955L594.967 53.3557H588.602L596.956 22.53Z" fill="#D27487"/>
<path d="M626.309 53.3557V27.8295H616.982V22.53H642.044V27.8295H632.718V53.3557H626.309Z" fill="#D27487"/>
<path d="M655.056 53.3557V27.8295H645.73V22.53H670.792V27.8295H661.466V53.3557H655.056Z" fill="#D27487"/>
<path d="M676.025 53.3557V22.53H698.655V27.8295H682.478V34.7631H693.174V40.0626H682.478V48.0561H698.832V53.3557H676.025Z" fill="#D27487"/>
<path d="M742.098 53.8856C739.328 53.8856 736.941 53.2232 734.937 51.8983C732.933 50.5734 731.387 48.7186 730.296 46.3337C729.206 43.9195 728.661 41.1225 728.661 37.9428C728.661 34.7042 729.22 31.8925 730.34 29.5077C731.46 27.1229 733.036 25.2828 735.07 23.9873C737.133 22.6624 739.549 22 742.318 22C744.499 22 746.503 22.4269 748.33 23.2807C750.157 24.1345 751.645 25.3711 752.794 26.9904C753.973 28.5803 754.636 30.5087 754.784 32.7757H747.756C747.578 31.127 747.019 29.8021 746.076 28.8011C745.133 27.8001 743.88 27.2995 742.318 27.2995C740.963 27.2995 739.755 27.7117 738.695 28.5361C737.633 29.3605 736.794 30.5676 736.175 32.1575C735.585 33.7473 735.29 35.6758 735.29 37.9428C735.29 40.2098 735.585 42.1383 736.175 43.7282C736.764 45.318 737.56 46.5252 738.562 47.3495C739.593 48.1738 740.772 48.5861 742.098 48.5861C743.188 48.5861 744.146 48.3653 744.971 47.9236C745.795 47.4525 746.458 46.7901 746.96 45.9363C747.49 45.0824 747.814 44.0667 747.932 42.889H754.916C754.709 45.1267 754.061 47.0698 752.971 48.7186C751.88 50.3673 750.422 51.648 748.595 52.5608C746.768 53.444 744.603 53.8856 742.098 53.8856Z" fill="#D27487"/>
<path d="M761.916 46.8196V41.52H779.729V46.8196H761.916ZM765.674 22.53H775.177L783.575 53.3557H777.033L772.259 34.8955L770.404 27.1671L768.547 34.8955L763.684 53.3557H757.319L765.674 22.53Z" fill="#D27487"/>
<path d="M787.836 53.3557V22.53H810.776V27.8295H794.245V34.7631H805.294V40.0626H794.245V53.3557H787.836Z" fill="#D27487"/>
<path d="M815.052 53.3557V22.53H837.683V27.8295H821.506V34.7631H832.203V40.0626H821.506V48.0561H837.861V53.3557H815.052Z" fill="#D27487"/>
<path d="M1323.19 37.5957C1323.19 31.1916 1318 26 1311.6 26C1305.19 26 1300 31.1916 1300 37.5957C1300 43.3835 1304.24 48.1808 1309.78 49.0508V40.9477H1306.84V37.5957H1309.78V35.0411C1309.78 32.1349 1311.52 30.5296 1314.16 30.5296C1315.43 30.5296 1316.76 30.7561 1316.76 30.7561V33.6097H1315.3C1313.86 33.6097 1313.41 34.5037 1313.41 35.4216V37.5957H1316.62L1316.11 40.9477H1313.41V49.0508C1318.95 48.1808 1323.19 43.3835 1323.19 37.5957Z" fill="#C67A88"/>
<path d="M1283.6 31.0402C1283.6 29.7642 1282.56 28.7202 1281.28 28.7202H1262.72C1261.44 28.7202 1260.4 29.7642 1260.4 31.0402V44.9602C1260.4 46.2361 1261.44 47.2801 1262.72 47.2801H1281.28C1282.56 47.2801 1283.6 46.2361 1283.6 44.9602V31.0402ZM1281.28 31.0402L1272 36.8401L1262.72 31.0402H1281.28ZM1281.28 44.9602H1262.72V33.3602L1272 39.1602L1281.28 33.3602V44.9602Z" fill="#C67A88"/>
<path d="M1352.5 29.0709C1355.57 29.0709 1355.94 29.0844 1357.14 29.1383C1358.27 29.1877 1358.87 29.3764 1359.28 29.5336C1359.81 29.7402 1360.2 29.9918 1360.6 30.3916C1361 30.7959 1361.25 31.1777 1361.46 31.7123C1361.61 32.1166 1361.8 32.7275 1361.85 33.8461C1361.91 35.059 1361.92 35.4228 1361.92 38.491C1361.92 41.5637 1361.91 41.9275 1361.85 43.1359C1361.8 44.259 1361.61 44.8654 1361.46 45.2697C1361.25 45.8043 1361 46.1906 1360.6 46.5904C1360.2 46.9947 1359.81 47.2418 1359.28 47.4484C1358.87 47.6057 1358.26 47.7943 1357.14 47.8437C1355.93 47.8977 1355.57 47.9111 1352.5 47.9111C1349.43 47.9111 1349.06 47.8977 1347.86 47.8437C1346.73 47.7943 1346.13 47.6057 1345.72 47.4484C1345.19 47.2418 1344.8 46.9902 1344.4 46.5904C1344 46.1861 1343.75 45.8043 1343.54 45.2697C1343.39 44.8654 1343.2 44.2545 1343.15 43.1359C1343.09 41.923 1343.08 41.5592 1343.08 38.491C1343.08 35.4184 1343.09 35.0545 1343.15 33.8461C1343.2 32.7231 1343.39 32.1166 1343.54 31.7123C1343.75 31.1777 1344 30.7914 1344.4 30.3916C1344.8 29.9873 1345.19 29.7402 1345.72 29.5336C1346.13 29.3764 1346.74 29.1877 1347.86 29.1383C1349.06 29.0844 1349.43 29.0709 1352.5 29.0709ZM1352.5 27C1349.38 27 1348.99 27.0135 1347.76 27.0674C1346.54 27.1213 1345.7 27.3189 1344.97 27.602C1344.21 27.8984 1343.57 28.2893 1342.93 28.9316C1342.29 29.5695 1341.9 30.2119 1341.6 30.9666C1341.32 31.6988 1341.12 32.5344 1341.07 33.7562C1341.01 34.9871 1341 35.3779 1341 38.5C1341 41.6221 1341.01 42.0129 1341.07 43.2393C1341.12 44.4611 1341.32 45.3012 1341.6 46.0289C1341.9 46.7881 1342.29 47.4305 1342.93 48.0684C1343.57 48.7062 1344.21 49.1016 1344.97 49.3936C1345.7 49.6766 1346.53 49.8742 1347.76 49.9281C1348.98 49.982 1349.37 49.9955 1352.5 49.9955C1355.62 49.9955 1356.01 49.982 1357.23 49.9281C1358.46 49.8742 1359.3 49.6766 1360.02 49.3936C1360.78 49.1016 1361.42 48.7062 1362.06 48.0684C1362.7 47.4305 1363.09 46.7881 1363.38 46.0334C1363.67 45.3012 1363.87 44.4656 1363.92 43.2438C1363.97 42.0174 1363.99 41.6266 1363.99 38.5045C1363.99 35.3824 1363.97 34.9916 1363.92 33.7652C1363.87 32.5434 1363.67 31.7033 1363.38 30.9756C1363.1 30.2119 1362.71 29.5695 1362.07 28.9316C1361.43 28.2938 1360.79 27.8984 1360.03 27.6064C1359.3 27.3234 1358.47 27.1258 1357.24 27.0719C1356.01 27.0135 1355.62 27 1352.5 27Z" fill="#C67A88"/>
<path d="M1352.5 32.5928C1349.24 32.5928 1346.59 35.2387 1346.59 38.5C1346.59 41.7613 1349.24 44.4072 1352.5 44.4072C1355.76 44.4072 1358.41 41.7613 1358.41 38.5C1358.41 35.2387 1355.76 32.5928 1352.5 32.5928ZM1352.5 42.3318C1350.38 42.3318 1348.67 40.6158 1348.67 38.5C1348.67 36.3842 1350.38 34.6682 1352.5 34.6682C1354.62 34.6682 1356.33 36.3842 1356.33 38.5C1356.33 40.6158 1354.62 42.3318 1352.5 42.3318Z" fill="#C67A88"/>
<path d="M1360.02 32.3591C1360.02 33.1228 1359.4 33.7382 1358.64 33.7382C1357.88 33.7382 1357.26 33.1183 1357.26 32.3591C1357.26 31.5954 1357.88 30.98 1358.64 30.98C1359.4 30.98 1360.02 31.5999 1360.02 32.3591Z" fill="#C67A88"/>
</svg>
